<svg xmlns="http://www.w3.org/2000/svg" width="24" height="24" viewBox="0 0 24 24">
  <path id="Exclusion_1" data-name="Exclusion 1" d="M21.429,24H2.571A2.574,2.574,0,0,1,0,21.429V2.571A2.574,2.574,0,0,1,2.571,0H21.429A2.574,2.574,0,0,1,24,2.571V21.429A2.574,2.574,0,0,1,21.429,24ZM12,3.367l-.507,0c-1.847,0-2.18.011-3.051.05a6.389,6.389,0,0,0-2.1.4A4.416,4.416,0,0,0,3.821,6.345a6.342,6.342,0,0,0-.4,2.1c-.042.944-.051,1.254-.051,3.559,0,2.334.01,2.639.052,3.559a6.381,6.381,0,0,0,.4,2.1A4.414,4.414,0,0,0,6.345,20.18a6.369,6.369,0,0,0,2.1.4c.92.042,1.226.052,3.559.052s2.639-.01,3.559-.052a6.383,6.383,0,0,0,2.1-.4,4.422,4.422,0,0,0,2.524-2.525,6.439,6.439,0,0,0,.4-2.1c.042-.94.052-1.25.052-3.559s-.01-2.62-.052-3.559a6.438,6.438,0,0,0-.4-2.1,4.416,4.416,0,0,0-2.525-2.525,6.4,6.4,0,0,0-2.1-.4C14.618,3.377,14.309,3.367,12,3.367Zm0,15.706c-2.3,0-2.573-.009-3.488-.05a4.81,4.81,0,0,1-1.6-.3A2.865,2.865,0,0,1,5.27,17.087a4.8,4.8,0,0,1-.3-1.6c-.041-.9-.049-1.169-.049-3.488s.009-2.59.049-3.488a4.8,4.8,0,0,1,.3-1.6A2.863,2.863,0,0,1,6.909,5.267a4.759,4.759,0,0,1,1.6-.3c.8-.036,1.105-.047,2.714-.049.073,0,.151,0,.22,0H12c2.32,0,2.59.009,3.488.049a4.794,4.794,0,0,1,1.6.3A2.858,2.858,0,0,1,18.73,6.908a4.756,4.756,0,0,1,.3,1.6c.042.915.05,1.189.05,3.488s-.009,2.573-.05,3.488a4.742,4.742,0,0,1-.3,1.6,2.86,2.86,0,0,1-1.638,1.638,4.745,4.745,0,0,1-1.6.3C14.575,19.064,14.3,19.073,12,19.073ZM12,7.566A4.433,4.433,0,1,0,16.433,12,4.438,4.438,0,0,0,12,7.566ZM16.61,6.356l0,0a1.035,1.035,0,1,0,1.039,1.034A1.035,1.035,0,0,0,16.607,6.358ZM12,14.878A2.878,2.878,0,1,1,14.879,12,2.881,2.881,0,0,1,12,14.878Z" fill="#707070"/>
</svg>
