<svg xmlns="http://www.w3.org/2000/svg" width="71.358" height="54.217" viewBox="0 0 71.358 54.217">
  <g id="vssl-flag-texture-logo-cutot" transform="translate(35.679 27.108)">
    <g id="Group_69" data-name="Group 69" transform="translate(-35.679 -27.108)">
      <path id="Path_2117" data-name="Path 2117" d="M60.6,24.257c.057,0,.057-.057,0-.057h0Z" transform="translate(-26.083 -10.411)" fill="#9b794e"/>
      <path id="Path_2118" data-name="Path 2118" d="M63,24.7Z" transform="translate(-27.116 -10.626)" fill="#9b794e"/>
      <path id="Path_2119" data-name="Path 2119" d="M70.3,26.9h0a.114.114,0,0,0,.057.114h.114C70.47,26.957,70.356,26.9,70.3,26.9Z" transform="translate(-30.259 -11.574)" fill="#9b794e"/>
      <path id="Path_2120" data-name="Path 2120" d="M62.3,27.7Z" transform="translate(-26.815 -11.918)" fill="#9b794e"/>
      <path id="Path_2121" data-name="Path 2121" d="M70.7,25.9Z" transform="translate(-30.432 -11.143)" fill="#9b794e"/>
      <path id="Path_2122" data-name="Path 2122" d="M.39,94.274H.219c-.114,0-.285.114-.228.171l.114.171.114.171H.333c0-.228,0-.285.057-.285H.561c.171.114.285.057.171-.114S.447,94.217.39,94.274Z" transform="translate(0.02 -40.57)" fill="#9b794e"/>
      <path id="Path_2123" data-name="Path 2123" d="M62,24.9Z" transform="translate(-26.686 -10.712)" fill="#9b794e"/>
      <path id="Path_2124" data-name="Path 2124" d="M8.414,86.614c.228,0,.285-.057.228-.114h0l-.342.228Z" transform="translate(-3.563 -37.237)" fill="#9b794e"/>
      <path id="Path_2125" data-name="Path 2125" d="M4.85,89.012h.342c.114,0,.114,0,.171-.057s-.114-.171-.171-.114-.114.057-.171-.057-.057-.114,0-.171h.342V88.5H5.249l-.342.228c.057.057,0,.114-.057.171S4.736,88.956,4.85,89.012Z" transform="translate(-2.049 -38.098)" fill="#9b794e"/>
      <path id="Path_2126" data-name="Path 2126" d="M71.2,26.2Z" transform="translate(-30.647 -11.272)" fill="#9b794e"/>
      <path id="Path_2127" data-name="Path 2127" d="M49.7,19.981Z" transform="translate(-21.389 -8.583)" fill="#9b794e"/>
      <path id="Path_2128" data-name="Path 2128" d="M7.2,88.028l-.114-.114L6.972,87.8h0c-.057,0-.057.171.057.228S7.2,88.085,7.2,88.028Z" transform="translate(-2.975 -37.797)" fill="#9b794e"/>
      <path id="Path_2129" data-name="Path 2129" d="M62.364,25.814c.057-.057,0-.114-.114-.114s-.057.057,0,.114Z" transform="translate(-26.765 -11.057)" fill="#9b794e"/>
      <path id="Path_2130" data-name="Path 2130" d="M58.957,20.589c-.057,0-.057.114-.057.171l.114.114v-.114C59.071,20.645,59.014,20.532,58.957,20.589Z" transform="translate(-25.351 -8.849)" fill="#9b794e"/>
      <path id="Path_2131" data-name="Path 2131" d="M58.8,22.4Z" transform="translate(-25.308 -9.636)" fill="#9b794e"/>
      <path id="Path_2132" data-name="Path 2132" d="M56.7,28.7v0Z" transform="translate(-24.403 -12.349)" fill="#9b794e"/>
      <path id="Path_2133" data-name="Path 2133" d="M59.3,22Z" transform="translate(-25.523 -9.464)" fill="#9b794e"/>
      <path id="Path_2134" data-name="Path 2134" d="M57.8,20.957h.057V20.9Z" transform="translate(-24.877 -8.99)" fill="#9b794e"/>
      <path id="Path_2135" data-name="Path 2135" d="M58.5,21.1c0,.057,0,.114.057.114h.057V21.1Z" transform="translate(-25.179 -9.076)" fill="#9b794e"/>
      <path id="Path_2136" data-name="Path 2136" d="M58.7,32.2Z" transform="translate(-25.265 -13.856)" fill="#9b794e"/>
      <path id="Path_2137" data-name="Path 2137" d="M57,30.7Z" transform="translate(-24.533 -13.21)" fill="#9b794e"/>
      <path id="Path_2138" data-name="Path 2138" d="M59.5,29.8Z" transform="translate(-25.609 -12.822)" fill="#9b794e"/>
      <path id="Path_2139" data-name="Path 2139" d="M60.482,31.4c-.057,0,0,.057.057.057s.057,0,0-.057Z" transform="translate(-26.022 -13.511)" fill="#9b794e"/>
      <path id="Path_2140" data-name="Path 2140" d="M64.9,23.7Z" transform="translate(-27.934 -10.196)" fill="#9b794e"/>
      <path id="Path_2141" data-name="Path 2141" d="M57.481,31.557h.057a.056.056,0,0,0-.057-.057C57.424,31.5,57.481,31.557,57.481,31.557Z" transform="translate(-24.729 -13.554)" fill="#9b794e"/>
      <path id="Path_2142" data-name="Path 2142" d="M57.1,31.357V31.3h-.057c-.057,0-.114.057-.057.114H57.1C57.21,31.414,57.153,31.357,57.1,31.357Z" transform="translate(-24.515 -13.468)" fill="#9b794e"/>
      <path id="Path_2143" data-name="Path 2143" d="M27,52.5Z" transform="translate(-11.615 -22.597)" fill="#9b794e"/>
      <path id="Path_2144" data-name="Path 2144" d="M22.1,53.514h.057V53.4Z" transform="translate(-9.505 -22.984)" fill="#9b794e"/>
      <path id="Path_2145" data-name="Path 2145" d="M19.9,69.571V69.4h0C19.9,69.514,19.957,69.571,19.9,69.571Z" transform="translate(-8.558 -29.874)" fill="#9b794e"/>
      <path id="Path_2146" data-name="Path 2146" d="M22.1,54.2Z" transform="translate(-9.505 -23.329)" fill="#9b794e"/>
      <path id="Path_2147" data-name="Path 2147" d="M19.9,70.4Z" transform="translate(-8.558 -30.305)" fill="#9b794e"/>
      <path id="Path_2148" data-name="Path 2148" d="M25.5,87Z" transform="translate(-10.969 -37.452)" fill="#9b794e"/>
      <path id="Path_2149" data-name="Path 2149" d="M28.4,81Z" transform="translate(-12.218 -34.869)" fill="#9b794e"/>
      <path id="Path_2150" data-name="Path 2150" d="M97.5,9.6Z" transform="translate(-41.972 -4.124)" fill="#9b794e"/>
      <path id="Path_2151" data-name="Path 2151" d="M110.5,9Z" transform="translate(-47.57 -3.866)" fill="#9b794e"/>
      <path id="Path_2152" data-name="Path 2152" d="M48.9,22.057h.057V22Z" transform="translate(-21.045 -9.464)" fill="#9b794e"/>
      <path id="Path_2153" data-name="Path 2153" d="M16.7,84.5Z" transform="translate(-7.18 -36.376)" fill="#9b794e"/>
      <path id="Path_2154" data-name="Path 2154" d="M33.2,43.2Z" transform="translate(-14.284 -18.592)" fill="#9b794e"/>
      <path id="Path_2155" data-name="Path 2155" d="M75.254,6.142h0a.4.4,0,0,0-.228-.285.2.2,0,0,1,.057.114l-.171-.114h.114V5.8h-.171a1.025,1.025,0,0,0-.626-.057l-.4.228s.057.057,0,.057h-.057a1.423,1.423,0,0,0-.285.4l-.171.114-.228.114h-.228a1.027,1.027,0,0,0-.569-.114h-.114c0,.057,0,0-.114,0s-.057.057-.114,0h-.057l-.4.114a.472.472,0,0,0-.171.456V7.4a.512.512,0,0,1-.512.4h-.285c-.171,0-.342.057-.456,0a1.367,1.367,0,0,1-.683-.854A4.327,4.327,0,0,0,69.1,6.37h0V6.256h.114l-.171-.171L68.876,5.8,68.364,5a1.2,1.2,0,0,0-.569-.569h-.057V4.377h-.285a.74.74,0,0,0-.854.854c0,.114-.114.171-.114.285s-.057.285-.057.4a2.619,2.619,0,0,1-.057.74.8.8,0,0,1-.4.4h-.057a1.822,1.822,0,0,1-1.082.171,1.879,1.879,0,0,1-.911-.285,2.562,2.562,0,0,1-.512-.626,2.9,2.9,0,0,0-.683-.512,2.847,2.847,0,0,0-.8-.456,2.847,2.847,0,0,0-1.253,0,1.993,1.993,0,0,0-.8.4h0c.114.057.114.114.057.171L59.766,5.8l-.342.342c-.114.114-.285.228-.285.4a1.2,1.2,0,0,0,.114.626l.285.8a1.48,1.48,0,0,1,.114.8.911.911,0,0,1-.228.456,2.733,2.733,0,0,1-.8.683,3.53,3.53,0,0,1-1.31.342l-.854-.114a5.068,5.068,0,0,1-1.082,0,4.612,4.612,0,0,1-1.48-.683h.057l-.228-.171-1.651-1.31a8.314,8.314,0,0,0-1.651-.911l-1.2-.456a15.374,15.374,0,0,0-3.189-.968l-2.335-.285-1.424-.114H39.552l-2.733.285-2.05.171-1.537.171-.456.171A19.644,19.644,0,0,1,24.235.619c-.854,4.954-1.651,9.908-2.448,14.861.285-2.505.569-5.409,1.025-8.883-.057.057-.057.114-.171.114a.151.151,0,0,1-.171-.171V6.427c0-.114-.114-.114-.057-.228a.456.456,0,0,1,.285-.171.285.285,0,0,1,.228.228c.228-1.765.569-3.644.854-5.751.057-.569-1.253-.74-1.424-.171C19.224,16.278,18.313,21.061,16.947,30.4h0c.057,0,.057.171,0,.171H16.89v.4h0a1.423,1.423,0,0,1-.114.4v.057l-.114.74c.057-.057.057-.057.114.057h.171c.114,0,.285.171.228.228s-.228,0-.228-.057l-.228-.114h-.114V32.9l.114-.171c.171-.171.342-.228.456-.057a.348.348,0,1,1-.569.4v-.057l-.228,1.367h0c-.114.74-.114,1.537-.228,2.335l.171.171L16.206,37c-.057.057-.057.057-.171-.057s-.114.228-.114.342a.228.228,0,0,1,.057.114.171.171,0,0,1-.057.114c-.057.342-.057.626-.114.968h.114c.171.057.228.057.114.171s-.171.171-.228.057h-.057l-.057.854h.228c.114-.057.114-.114.114-.228s.057-.114.114-.114.171,0,.171.114-.057.057-.114.057l-.114.114c-.057.057.057.171.228.171s.057,0,0,.057v.114h-.683v.285h.285c.057,0,.114.342.114.456s-.114.114-.228.171H15.58a1.206,1.206,0,0,1-.171.4h.057c.114-.114.114-.057.285,0h.456a.171.171,0,0,1,.114.171l-.114.171c-.228,0-.285,0-.4.114a.231.231,0,0,1-.4-.114v.285h0c.057.114.171.228.114.228H15.3c0,.114.057.228,0,.342h0c.171-.057.228,0,.114.057s-.171.114-.114.171.057.114-.057,0,0,.114,0,.171.114.057.114.171-.057.228-.171.171,0,.171,0,.285h-.057c0,.057.057.057,0,.114v.114c.114-.057.228.057.285.171s.057.114-.114.171l-.228.114a.228.228,0,0,0,0,.285h.171c.057,0,.285.228.228.228h-.228c-.114-.057-.057-.114-.057,0s-.171.057-.228,0L14.726,46a.512.512,0,0,0,.057.228h.171c.228.057.285.057.4.228s.057.228-.057.228l-.114.114-.171.171a.569.569,0,0,0-.114.228.4.4,0,0,1,0,.171.171.171,0,0,0,.057.171c.057,0,.057.057.057.114s-.057.114-.114.057h-.171l-.171-.114c-.114-.114-.285-.057-.285.057v.114s-.4-.285-.342-.342a.171.171,0,0,0-.057-.171c-.114-.057-.114,0,.057-.057l.171-.114.228-.171.114-.228a.228.228,0,0,0,.228-.171.171.171,0,0,0-.057-.171h-.171c0,.114,0,.057-.114.057s-.057.057-.057.171a.342.342,0,0,1-.4.285h-.228c-.057.114-.114.114-.114,0s-.057-.114-.114-.114-.114-.057-.171-.114l-.74.342a.171.171,0,0,1,0,.171l-.171.114c-.057,0-.114-.057-.171-.114l-.4.285h-.057c.057.057.114-.057.228-.114a.192.192,0,0,1,.285.171c0,.171,0,.171-.171.171h-.171c-.057,0-.057-.057-.114-.171s-.057-.057-.057-.057l-.228.114-.114.114a.342.342,0,0,0-.114.228c0,.114,0,.171-.114.114s-.285,0-.285.114H10.8l-.171.171h-.171c-.057,0,0,0-.057-.057h-.057L10,48.449c.057-.057.114,0,.171.114s.228.171.285,0,.057-.114.114-.057h.114c.057-.057.228,0,.228.057l-.114.114h-.171c-.114.114-.114.114-.114.171a.456.456,0,0,0,.285.228c.057,0,.114.057.114.228s-.057.171-.057.228.057.057-.114.171l-.228.171a.114.114,0,0,0,.171.114c.057,0,.114-.114.171-.114s.057.057.171,0,0-.057,0-.171.057-.285.285-.171.228.057.228.228,0,.228.114.114a.285.285,0,0,1,.342,0h.057l.114-.114h.057a.209.209,0,0,0-.057-.171c-.057-.057-.057,0,0-.171s0-.171-.057-.342a.228.228,0,0,1,0-.171h.057c.057.114.114.228.285.228s.057,0,.057.057.285.114.4.057a.4.4,0,0,0,.057-.171c0-.057.057-.114.114-.171s.057-.057.057-.114,0-.114-.057-.114l-.171-.114.171.114h.342c.114.057.114.114.171.342s.114.228.171.228a.171.171,0,0,1,.114.228h.911a.107.107,0,0,1,0-.171v.114h.4L15.3,49.3v-.114l.4-.114v-.114c-.171-.171,0-.342.171-.171s.057.114,0,.285,0,.114-.114.114-.171.057-.057.114h.342l1.48-.114.114-.114h.683a.228.228,0,0,1,0-.342H18.6c.057-.114.057-.114.057.114a.342.342,0,0,1-.057.285h1.367l.569-.114c0-.057,0-.057.057-.057h.171v.057h1.2V48.9c0-.171,0-.171.228-.342s.285-.228.342-.114,0,.114-.057.114-.057.057-.057.171a.228.228,0,0,1-.114.228h.4a.114.114,0,0,1,0-.171h.683a.188.188,0,0,1,0-.285c.057-.057.4.228.285.342,3.018-.171,5.466-.228,7.744-.171a.122.122,0,0,1,.114-.114c.057,0,.057.114.057.171H33.4a.114.114,0,0,1,.171.057c5.922.171,11.16.74,23,.74,4.1,0-3.758-1.537-7.8-1.822-8.029-.626-12.071-1.139-16.114-1.537-.057.057-.057.057-.114,0s0-.057,0-.114l-2.391-.171c0,.114-.114.114-.171,0h-.342c0,.057-.228.228-.285.171a.4.4,0,0,1,0-.285H27.253l-.114.114h-.228c-.057,0-.057-.057-.057-.114l-2.391-.114v.114l-.114-.114H23.78c.057.057.114.171.057.171s-.057,0-.057-.057H21.16c.057,0,0,.057,0,.114a.064.064,0,1,1-.114.057.079.079,0,0,1,0-.114H21.1l-.228.114c.057.057-.057.114-.114.228a.342.342,0,0,0-.057.228c0,.114.057.114,0,.114a.114.114,0,0,1-.057-.114c0-.057,0-.057-.114-.114a.228.228,0,0,1-.057-.342h-.968a.74.74,0,0,1-.569-.057H17.8V46q0,.085-.171,0h-.968c0,.057.057.114.114.171s.057.171,0,.171a.171.171,0,0,1-.285-.057.107.107,0,0,0-.171,0,.333.333,0,0,1-.4-.171c-.057-.171-.114-.228-.057-.342h.114v-.228c0-.114-.057-.057.057-.057h.057l.114-.512a.342.342,0,0,1-.057-.342.432.432,0,0,1,.228-.114c.057,0,0-.285.057-.4s-.171.057-.342,0-.114,0-.114-.456,0-.342.057-.342.057.114.057.114h.171c.057,0,.114,0,.228.114h.114c.114-.4.114-.854.228-1.253h.114c.114-.342.114-.74.228-1.082s-.171,0-.171.057a.305.305,0,0,1-.171.228h-.228a.176.176,0,0,1-.057-.114h.114c.114,0,.228-.171.228-.285s.114-.228.342-.228.114-.342.171-.512h-.057c-.228.057-.342-.057-.228-.228s.057-.057.114,0l.114.114h0l.171-.456a.057.057,0,0,1,0-.114l.114-.114c0-.057,0-.057.057-.057s0-.342,0-.512a1.139,1.139,0,0,1-.4-.4h.057a.228.228,0,0,0,.057-.171.228.228,0,0,1,.114-.171c.114-.057.171,0,.228.057a.127.127,0,0,1-.114.228h-.114l.342.228.171-.512h0c.057-.171.057-.342.114-.512h-.057c-.057-.057-.057-.4,0-.342l.171.228.114-.456h-.057c.057-.228.228-.456.285-.74h-.057c-.057-.057-.057-.057-.057-.114H18.6a6.418,6.418,0,0,1,.171-1.025h0l-.114.114c-.114.057-.114-.114,0-.228l.114-.114c0-.057.057-.057.114,0V34.9h-.114l.114-.114h0c.171-.8.4-1.537.569-2.278h-.114c-.114-.057-.114-.057,0-.114h.114l.285-1.367H19.68c-.057.114-.342.057-.4-.057s-.057-.057.057-.171v-.171a.228.228,0,0,0,.057-.171c-.057-.171-.057-.171,0-.285A.276.276,0,0,1,19.737,30l.114.114c.057-.285.057-.626.114-.968s0-.057,0-.057.285-1.48.4-2.164h-.114c-.114-.057-.114,0,0-.171s.057-.171.057-.114a9.281,9.281,0,0,0,.285-1.2h0c.057-.456.171-.854.228-1.31l.4.114v-.114a.122.122,0,0,1,.114-.114l.456-.342c.4-.285.456-.228.626-.057a.8.8,0,0,1,.057.74.762.762,0,0,0-.057.285l.854.285h.114v.114h0a11.9,11.9,0,0,0,1.594.342h-.057l.114-.114v.114h.057a14.634,14.634,0,0,0,3.132-.114v-.114h0a.122.122,0,0,1,.114.114l1.879-.4h0c.171-.171.228-.171.285-.057,5.979-2.164,12.071-6.15,18.05-6.605l.342.114,1.651.285,1.594.342,1.651.285,1.48.285h3.7a10.7,10.7,0,0,0,1.253-.342l1.424-.456,1.139-.456,1.082-.626h.114l.342-.114.8-.114h1.025a.911.911,0,0,1,.569.228l.456.4h.057l.4.228a.854.854,0,0,0,.4.171l.114.114a4.783,4.783,0,0,0,.911-.114,1.48,1.48,0,0,0,.911-.342l.342-.285a1.367,1.367,0,0,0,.512-.8v-.285c0-.114.114-.114.171-.171a.911.911,0,0,1,.4-.285H71.5l.285.171a.74.74,0,0,0,.456.228l.512-.114a.74.74,0,0,0,.512-.171l.4-.456a.854.854,0,0,1,.456-.171l.228-.171a.683.683,0,0,0,.456-.342v-.171c0-.057,0-.171-.057-.171l-.171.114-.114.228a.214.214,0,0,1-.342,0H73.83l-.4.171-.512.171c-.114.057-.228.171-.342.114a.626.626,0,0,1-.456-.456c-.057-.114-.228-.171-.342-.228a1.253,1.253,0,0,0-.512-.285h-.8l-.512.171a.74.74,0,0,0-.342.4,1.2,1.2,0,0,0,.114.626.911.911,0,0,1,0,.171.3.3,0,0,1-.114.228H69.56l-.512.228-.512.114a1.139,1.139,0,0,1-.74-.4l-.4-.342a2.05,2.05,0,0,1-.342-.512,3.4,3.4,0,0,1-.342-.626,1.367,1.367,0,0,0-.74-.74l-.854-.228h-.8a1.879,1.879,0,0,0-.74.171l-.683.285-.456.285-.8.512-1.025.4-.626.228h-.8a15.715,15.715,0,0,1-2.164.057l-.911-.171-1.594-.171a5.011,5.011,0,0,1-1.253-.456l-.911-.4-.911-.4-1.139-.74a21.182,21.182,0,0,1,2.847-.228h.057l1.082.4a6.947,6.947,0,0,0,1.082.057,7.573,7.573,0,0,0,1.253.057h.683l1.48.456-.683-.569.228-.114,1.253-.456a3.416,3.416,0,0,0,.968-.683l.512-.569h.114c.057-.114.057-.285.114-.4a1.879,1.879,0,0,0,.171-.8c0-.057-.057-.114-.057-.171h.057a.512.512,0,0,0,0-.114h-.057a.968.968,0,0,0-.057-.285h0V9.844a.74.74,0,0,1,.171-.626l.342-.171a1.537,1.537,0,0,1,.683-.057l.569.171a2.505,2.505,0,0,0,.854.285h1.765a1.31,1.31,0,0,0,.626-.114,2.505,2.505,0,0,0,.683-.569l.171-.285.171-.171c0-.057-.057-.114,0-.171h.057c-.057-.057-.114-.171-.057-.171h.114a.122.122,0,0,1,.114-.114,1.765,1.765,0,0,1,.569-.342.171.171,0,0,1,.228.057v.171l.228.285h.114c.114.057.114,0,.114.114a.171.171,0,0,1-.057.171l.171.285.171.342.228.285.4.228h.057a.285.285,0,0,1,0,.057h.285c0-.057,0-.057.057-.057h.171a1.253,1.253,0,0,0,.569-.342l.285-.171a2.562,2.562,0,0,0,.626-.911c.057-.114,0-.171.057-.285a.456.456,0,0,1,.456-.285h.8l.285-.114A.456.456,0,0,0,73.83,7a1.2,1.2,0,0,1,.228-.4h0a.2.2,0,0,1,.057-.114h.228c.057-.057,0-.114.057-.114a.683.683,0,0,1,.626-.114l.228.114.114.114V6.37C75.254,6.256,75.2,6.2,75.254,6.142ZM59.31,6.6H59.14a.079.079,0,0,1,0-.114c.057-.057.057,0,.114.057h.057l.171.114Zm-43.5,32.684h-.057c0-.057,0-.114.057-.114s.057.057.057.114Zm.285,1.48h0C16.15,40.705,16.15,40.762,16.093,40.762Zm-5.409,8.427h0v-.057c0-.057,0-.114.057-.114S10.683,49.132,10.683,49.189Zm2.164-1.822v.057h0Zm-.057.569c.057,0,.228.171.171.228l-.228-.114Zm-.285-.114c.057-.057.114,0,.057.057h-.057c0,.057,0-.057.057-.114Zm-.171-.171h.057c.057,0,.057.057,0,.114s-.114-.057,0-.171Zm-1.367,1.025c-.114,0-.114,0-.114-.114v-.171s.171.171.171.228h.114a.122.122,0,0,1,.114.114.127.127,0,0,1-.228.114c.057-.114,0-.228-.057-.228Zm.114.512c-.057-.114-.114-.228-.057-.171H11.2c.057.114.057.114,0,.171s0,.057-.057-.057Zm.456.569c-.171.057-.171.057-.285,0s-.114-.114-.114-.228.057-.114.228-.171.4,0,.4.114-.057.114,0,.114,0,.057-.228.114Zm.228-.512h-.057V49.3c0,.057.114-.114.057-.114Zm.8-.285c-.171,0-.228.114-.171.285s.057.228,0,.228-.171-.228-.171-.342a.228.228,0,0,0-.228-.228c-.114,0-.114.057,0,.114h.114c0,.057-.228.057-.285,0s-.342-.114-.4,0-.114.057-.114-.057a.266.266,0,0,1,.285-.285c.228,0,.342,0,.228-.114s-.114,0-.057-.114,0-.057-.057-.114-.114-.114-.171-.057-.057.114-.171,0-.114-.114-.057-.114h.114c.057,0,.057-.057.057-.114h.114c.057.057.4.171.456.114a.363.363,0,0,1,.342,0h.114c.114,0,.285-.057.285.114s-.057.114,0,.114.057.057,0,.057-.057.4-.171.4Zm.512-.911h.057c.057-.057,0,0-.057-.057Zm.228.626h-.114s-.057-.057,0-.057.228-.057.228.057Zm0-.911h-.228c-.114.114-.285.057-.171-.057l.171-.171c.057-.114,0-.114-.057-.228a.228.228,0,0,1,.057-.342c.057-.057.114-.057.057.057s-.057.057.057.057l.171.171.114.114a.228.228,0,0,1,.114.171c-.057.171-.171.171-.285.114Zm.8,1.708h-.114a.117.117,0,1,1,.057-.228l.114.114c.057,0,.057-.057-.057,0Zm.114.512Zm.171-.342h-.057c.057-.171.057-.114,0-.057Zm.114-.512a.085.085,0,1,1,0,.171h.057a.141.141,0,0,1,.057.228c-.057.057-.228-.171-.228-.285s.057-.114-.114-.114h-.683c-.171-.114-.171-.228-.057-.285s.057-.114.057-.285.057-.228-.057-.285a.117.117,0,1,1,.057-.228l.171-.114c.057-.057.114-.057.114,0a.2.2,0,0,1-.057.114l.171.114c.114.114.228.057.228-.057s0-.057.114-.057.228.057.171.285-.114.228,0,.285.114.228-.057.285-.057.114,0,.114Zm26.25-1.025H40.8a.056.056,0,0,1-.057.057c-.057,0-.057-.114-.057-.171Zm-1.708.683c.057-.171.228-.114.228.057s0,.114-.114.171-.228-.171-.171-.342Zm-3.53-.456c.057,0,.171.114.171.114h-.114c-.228-.114-.228-.228-.171-.228Zm-.285-.342H35.4a.171.171,0,0,1-.057.114c-.057.057-.114,0-.114-.057s-.171-.171-.114-.171ZM33.8,47.823h0v.114C33.8,47.994,33.687,47.88,33.8,47.823Zm-.569.626h0c.057.057,0,.114-.057.114S33.175,48.506,33.232,48.449ZM33,47.253a.2.2,0,0,1,.114.057H33c-.057,0-.057-.057,0,0Zm-.968.626h0s.057.057,0,.057Zm.228.114h.057v.057h0Zm-.228-1.139c.114,0,.171,0,.114.114s-.057.114-.114.114a.114.114,0,0,1,.057-.171Zm-1.424,1.708a.344.344,0,0,1,.342.171c.057.114.057.171-.171.171s-.171-.057-.171-.228.057-.057.057-.057ZM30.5,46.342h.057c0,.057,0,.114-.057.114s-.057-.057-.057-.114Zm-.911,1.537v0Zm-.512-1.424h0c.057.057,0,.114-.057.114s.057,0,.114-.057Zm-.342.626c0-.171,0-.171.057-.228a.285.285,0,0,1,.285.228c.057.114,0,.114-.114.114s-.114.057-.114.114-.114.057-.114-.171Zm-.456.228h0s.057.057,0,.057h-.057Zm-.74,1.424h-.114c0-.057,0-.114.114-.057l.114.114Zm-.057-1.594c.114.171.114.228,0,.228s-.228-.228-.228-.285.171,0,.228.114Zm-4.726.8c-.057-.114-.057-.114,0-.171a.171.171,0,0,1,.285.114.127.127,0,0,1-.228.114Zm.228.512c-.057-.057,0-.057.057-.114s0-.057.057,0,0,.285-.057.228Zm.114.171a.056.056,0,0,1-.057-.057s.114-.057.114.057Zm.171-.626h0s-.057-.057,0-.057h.057Zm.342.4h0v-.114s.114.171.057.171Zm.512.342c-.057,0-.114,0-.057-.057a.109.109,0,0,1,.171.057Zm.228-.4h-.057v.057c0,.057.114,0,.114-.057Zm.512.683Zm.456-2.278h0s.057.057.057,0Zm.626.569h0a.079.079,0,0,1,0-.114c.057-.057.171.114.057.171Zm.569.285v-.057h0c.057.171.114.171.114.114Zm0-.228c.057,0,.057.114.057.114v-.057Zm.228,1.082c-.114,0-.114.057-.057.171s.057.114.057.171-.057-.057-.114-.171-.114-.228,0-.228.228,0,.228.057Zm.285-.8v0Zm-.342-1.424c.057-.057.114,0,.057.057s-.171.057-.171,0Zm-.114.8.171-.228c.057-.057.057-.114.114-.114s0,.114.057.171.114.285.057.342a.683.683,0,0,1-.456,0Zm-.285-.8c.114-.114.171-.057.057.057h-.114c-.057.114,0,.057.114,0Zm-.114,1.993h.171c.171.057.171.171,0,.171s-.228-.057-.171-.114ZM26,46.912h.057c0,.057,0,.114-.057.114s-.057-.057-.057-.114,0,0,.057.057Zm-.171-.512h.114a.057.057,0,1,1-.114,0Zm0,1.993h0a.056.056,0,0,1-.057.057c-.057,0,0-.057,0-.057Zm-.114-.512c-.114,0-.114-.057-.057-.114h.114C25.829,47.766,25.772,47.88,25.716,47.88Zm.057-.456c0,.057,0,.057-.057.057s-.171-.057-.057-.114.114-.057.114,0Zm-.114-.285c.057-.057.114.057.057.114s-.057.114-.114,0,0-.114,0-.171ZM25.6,48.848c0,.057-.057.057-.057,0s0-.057.057-.057-.057-.057-.057,0Zm-.057-.285h-.057s-.057,0,0-.057h0Zm-.228-2.335h.228c0,.171-.228.171-.285,0s-.057-.057,0-.057Zm-.057,1.708c.171.114.114.114-.114.057s-.114,0-.114-.057v-.114Zm-.171-.4h0c-.171.057-.171,0-.114-.057Zm-.057.968h0s.057.057,0,.057h-.057Zm-.114-.854H24.8c-.057.057-.114.114-.114,0Zm0,1.2h-.057v-.057H24.8Zm0,.228a.109.109,0,0,1-.171.057c-.057-.057-.057-.114,0-.114Zm-.171-.285c-.057,0-.114-.057-.057-.114S24.748,48.734,24.748,48.791Zm-.854-2.107c.114-.057.114-.114.171-.057s.114.057.114,0,.114-.228.228-.228.114.342-.057.342-.114,0-.114.057,0,.171.114.057.342-.057.285.057a.171.171,0,0,1-.171.171h-.171v.057c0,.057-.114.057-.171,0s-.114-.114,0-.171,0,0-.057-.114l-.114-.114C23.78,46.741,23.78,46.741,23.893,46.684Zm.057,1.31H23.78c-.114,0-.171-.114-.114-.171h.285C24.064,47.88,24.007,47.994,23.95,47.994Zm-.114-.569a.057.057,0,1,1-.114,0Zm-.114-.968v0Zm-.057.569c.057-.057.114,0,.114.057s0,.114-.057.114-.057,0-.114-.057,0-.114.057-.114Zm-.057,1.139h.626c.057.057-.057.114-.171.171s-.114.114-.285,0h-.114c-.114-.057-.114-.171-.057-.171Zm-.057-.683h-.4c-.114-.057-.171-.171-.057-.228h.171Zm-.512-.512c.057-.057.114-.057.114,0s0,.114-.114.114-.057-.057,0-.114Zm-.057-.456c.114-.114.114-.171.228,0s.057.114-.057.171-.285.057-.285,0Zm-.171,1.025h.114q.171.085,0,.171c-.114.057-.228.057-.228-.057s.057-.114.114-.171ZM20.648,17.417c.057,0,0,0,0,.057v.057h0Zm-.4-1.48h.057c0,.057,0,.114-.057.057S20.135,15.936,20.249,15.936ZM20.022,14h0c.057.057,0,.114-.057.114s0-.114,0-.114Zm-.456,10.363c.057-.057.114,0,.057.057s-.057.114-.114,0,0-.057,0-.057Zm.057,4.5h-.114c0-.057,0-.114.057-.114s0,.057,0,.057Zm0-.74h0a.176.176,0,0,1-.057-.114s.057,0,0,.114Zm-.968-7.516a.285.285,0,0,1,.285.114c.057.114,0,.228-.228.171s-.171-.057-.171-.171S18.6,20.605,18.655,20.605Zm-.683,4.441a.368.368,0,0,1,.114-.285h.228a.93.93,0,0,0,0-.4.809.809,0,0,1,.114-.342H18.6c.114,0,.114.057.228.171a.5.5,0,0,1,.114.626l-.342.114c-.057.057.171.114.171.228s-.171.4-.285.4a.854.854,0,0,0-.456.114c-.057.057-.114.057-.285-.171S17.972,25.16,17.972,25.047Zm.968,2.9c-.057.057-.057.057-.114-.057s-.114-.171-.057-.228.171,0,.228.114-.057.171-.114.228Zm.057.4c.057,0,.114.114.114.171S19,28.463,19,28.406Zm-.512-.4h0s-.114.057-.057,0Zm-.171-1.48a.574.574,0,0,1-.057-.171c0-.057.285-.114.342.057s.057.057-.057.114-.285.057-.285,0ZM18.256,30.4c.057-.057.114.057.114.171s0,.057-.057.057-.171-.171-.114-.228ZM18.2,29.26c.057-.057.057,0,.057.114v.057s-.114-.114-.114-.171Zm.114-1.993h0a.079.079,0,0,1,0-.114h.057Zm-.512.569h.114c.057.057.114.057,0,.114s-.114,0-.114,0S17.687,27.894,17.8,27.837Zm.057,2.05Zm-.285-2.278c.057-.057.057-.057.057.057s-.057.171-.114.057,0-.057,0-.114ZM17.4,29.716c.057-.114.057-.057.057.057s0,.114-.057.114S17.4,29.773,17.4,29.716Zm.114,2.562c.057-.114.171-.228.285-.171v.171c-.057.114-.114.114,0,.228s.114.057.057.171-.171.171-.285.057A.333.333,0,0,1,17.516,32.278Zm.171,1.139c-.057,0-.057-.114,0-.171h.057C17.744,33.417,17.744,33.417,17.687,33.417Zm-.171.683h-.057c-.057,0-.114-.171-.057-.228S17.573,33.986,17.516,34.1Zm-.4-2.562c-.057,0-.057-.057.057-.228l.171-.114a1.367,1.367,0,0,1,0,.626.249.249,0,0,1-.057-.171Zm-.285,2.221h.057c0,.057-.114.057-.114,0Zm0,.512C17,34.1,17,34.1,17,34.328s0,.171.171.171a.114.114,0,0,1,.114.114c0,.057,0,.114-.114.114l-.285-.114c-.171,0-.228-.057-.228-.114Zm.683,2.619c.057.057.057,0,0,.057s-.171.057-.171-.057Zm.057-.8c.114,0,.114-.057.057,0h-.057ZM17,37.573c-.057,0-.057-.057-.057-.114v-.171a1.873,1.873,0,0,1,.342.342c.057.114,0,.057-.057.057s-.057.057-.057-.057-.114-.114-.228-.114ZM17,37Zm.228.285H17.4c.057.114.057.114-.057.114s-.171-.057-.171-.114Zm-.171-.512c-.057-.057-.114-.057-.114-.171s-.057-.114-.114-.171a.107.107,0,0,1,0-.171c.057-.057,0,0-.171-.057s-.057-.228,0-.285h.114c.057,0,.114.057.114.228s0,.285.171.228a.217.217,0,1,1-.057.4Zm-.342.171h.057c.057.114,0,.228-.114.114a.114.114,0,0,1,0-.114Zm-.114-.342c-.057,0-.057,0,0-.057h0Zm.171,1.537h.057c0,.057-.114.057-.114,0Zm.342-1.879c-.057,0-.057,0-.057-.057s.114-.057.114.057Zm-.512-1.537c.057-.057.114-.057.114,0s0,.114-.057.114a.09.09,0,1,1-.057-.171Zm-.057.8c.057-.057.057-.057.057.057s0,.114-.057.114-.057-.171,0-.228Zm-.228-.342c.057-.057.114-.057.057.057l-.057.114s-.057-.171,0-.228Zm-.114,1.025c-.114,0-.114,0,0-.057h.114c.057,0,.057.057,0,.057s0,.057,0,.114Zm.057,1.936c-.114-.114-.114-.171,0-.285s0-.171.057-.228.228-.171.285.057.114.456,0,.512h-.114C16.377,38.314,16.32,38.257,16.263,38.143Zm.114.342c.114-.114.228-.171.342-.114a.456.456,0,0,1,.285.4.151.151,0,0,1-.171.171c-.114,0-.171.114-.285,0a.342.342,0,0,1-.171-.456Zm.4,1.082c.114,0,.171.057.114.114l-.285-.114Zm-.114-.456c.114,0,.114.114.057.171s-.057,0-.057-.057S16.605,39.111,16.662,39.111Zm-.285.74h.057c0,.057,0,.057-.057.057s-.057-.057-.057-.114Zm-.4,1.708c.057-.057.114-.057.114,0s0,.114-.057.114a.064.064,0,1,1-.057-.114Zm-.114.512h.057c.057.057-.114.228-.171.171s.057-.171.171-.171Zm-.171.968c-.057,0-.057-.057,0-.057h0Zm-.171-.342v-.171s.171.057.171.171l-.171.114c-.057.057-.057.171-.114.114S15.523,42.755,15.523,42.7Zm.114.683H15.58v-.114c0-.057.114.114.114.114Zm-.057.74h-.057c-.114-.057-.114-.171,0-.114s.114.114.114.171Zm-.228-.8h.114c.057.057,0,.057-.057.114h-.057c0,.057,0-.057.057-.057Zm-.228,5.3h0a.056.056,0,0,1,.057.057Zm0-.4v-.057h.057c.057.171,0,.171,0,.057Zm.057-.342a.171.171,0,0,0-.057.171h0a.114.114,0,0,1-.057-.114.079.079,0,0,1,0-.114h.171c.114-.057.057,0,0,.057Zm0,1.139c.057.114,0,.171-.114.057s-.171-.171-.057-.228.171.057.228.171Zm-.4-.8c.057-.057.057-.057.114.057s.057.114,0,.171h-.114c0-.057,0-.228.057-.228Zm-.114.4c0-.057.057-.057.114,0s.057.057,0,.057Zm.057.512v-.057s.171.057.114.114a.057.057,0,0,1-.057-.057Zm.285.569h0v-.114c0-.057.057.057.057.057Zm.171-.285a.114.114,0,0,0-.171.057c-.057.114-.171.114-.171.057l.114-.114c.114-.114.285-.171.342-.057s0,.114-.057.057Zm.8-.342h0a.056.056,0,0,1,.057.057Zm.456.512c-.057.114-.114.114-.114,0s0-.114.057-.114.171.057.171.114Zm.171-.057c-.057,0-.057,0,0-.057h.057c.171,0,.114.057.057.057Zm.569-.057h-.057a.056.056,0,0,1,.057-.057.2.2,0,0,1,.114.057Zm.854-1.253h.114c.057.057-.057.114-.114.114s0-.114.114-.114Zm.057.512c-.057-.114-.057-.114,0-.114s.228.057.228.114-.114.057-.171,0Zm.285-.114h0a.079.079,0,0,1,0-.114c.057-.057.114.057.057.114Zm.228.228h0a.176.176,0,0,1-.057-.114.112.112,0,0,1,.114.114Zm1.253-.512Zm.171.456c0,.057-.057.057-.057,0s0-.057.057-.057.057,0,0,.057Zm.228-.911a.122.122,0,0,1-.114-.114h.057c.057-.114.114.057.114.114Zm.228.968h0s-.057-.057,0-.057h.057Zm1.082.228c-.057.057-.057.057-.114-.114s-.171-.228-.114-.228H21.5c.114,0,.171,0,.171.114s-.057.171-.057.228Zm.342-.342h-.114V48.62a.1.1,0,1,1,.171.114Zm.512-.569c-.114-.057-.171-.057-.114-.114a.171.171,0,0,1,.228,0c.114.114.057.171-.057.114Zm.057-.683c-.114.057-.114,0-.057-.114s0-.114.057-.114a.145.145,0,1,1,.057.285Zm0-.569c-.057,0-.057,0-.057-.057s0-.114.057-.114.057.057.057.114Zm-.057-.512c.114-.057.171-.057.171.057a.218.218,0,0,1-.285.171c-.114-.057.057-.171.171-.228Zm-.114.569a.182.182,0,0,1,.171.171h-.114c-.114,0-.114-.057-.114-.171Zm-.057.342v.057c0-.057-.114-.171-.057-.171Zm-.114-.512v.057h0c.057-.114.057-.114.057-.057Zm-.171-.342h0a.114.114,0,0,1-.114-.114Zm0,1.31c.114-.057.171.114.114.228s-.114.114-.114.057S21.9,47.823,21.957,47.766ZM21.9,46.684v0h0Zm-.057-.512c.057,0,.114,0,.057.057a.109.109,0,0,1-.171-.057Zm-.171,1.651c-.057,0-.114-.057-.057-.114S21.673,47.766,21.673,47.823Zm0-.854c0,.057,0,.057-.057,0s-.114-.228-.057-.228.114.114.114.171Zm-.342-.569c.057-.114.114-.114.228-.057a.228.228,0,0,1-.114.4c-.114,0-.114-.057-.171-.114S21.274,46.513,21.331,46.4Zm-.114.74Zm0,1.082a.228.228,0,0,1,.4.057h.171c.057,0,.057.057-.057.228s-.114.171-.285.171-.4-.285-.228-.456Zm-.171-1.367H21.1v.057Zm.057.342v.114h0Zm-.057.456Zm0,1.31h.114c.114,0,.114.171.057.228s-.285-.114-.171-.171Zm-.114-2.505c.057,0,.114.057.057.114h-.114s0-.114.057-.057Zm-.057.342c.057-.057.057-.057.057,0v.114s-.114-.057-.057-.057Zm0,.569Zm-.057.456c.057-.057.114-.057.171.057a.127.127,0,0,1-.228.114c-.114-.171,0-.114.057-.114Zm-.114.683h.057c-.057.057-.114.114-.114,0Zm-.171-.342h-.057c-.114-.114-.114-.171,0-.114s.171.057.114.114Zm-.456-1.48c.057-.114.171-.057.285.057s.114.114,0,.114h-.228C19.965,46.8,19.965,46.8,20.078,46.684Zm-.057.285.114.114h.171c.171,0,.228.114.114.285s-.228.228-.342.171S19.908,46.969,20.022,46.969Zm-.114.74h.057c0,.114-.114.057-.114,0Zm-.456,0c.057-.057.171-.057.171,0s0,.114-.057.114-.057,0-.114-.057S19.4,47.766,19.452,47.709Zm-.057.342c.171.114.114.569,0,.512a.171.171,0,0,1-.057-.228c.057-.114.114-.114,0-.228s-.114-.228-.057-.171ZM19.224,46.8v0Zm-.057.569c.057,0,.057,0,0,.057h0Zm0,1.082c.057.057,0,.057,0,.114s-.057.057,0,.171h.342l.114.171a.171.171,0,0,1,.114.228c0,.171-.057.228-.171.228h-.342c-.228.114-.456-.285-.285-.456s.114-.342.057-.342h-.114c-.057,0-.114-.114-.057-.114l.228.114c.114-.171.114-.171.171-.114ZM19,48.107c0,.057,0,.057-.057.114h-.171c-.057,0,0-.171.057-.228a.154.154,0,0,1,.228.114Zm-.228-.228h0a.056.056,0,0,0,.057-.057Zm.057-1.2h.057c0,.057,0,.057-.057.057s.057-.057.057-.057Zm0,.626c0,.057,0,.114-.057.114s-.057-.114,0-.114.114-.114.114,0Zm-.057-.342h.057c0,.057,0,.114-.057.114s-.057-.057-.057-.114Zm-.228.74H18.6c.057.057.057.114,0,.057s-.057-.114,0-.114Zm-.057.456c.057.171.057.228-.114.228s-.057-.171,0-.285.171-.057.228.057Zm-.228-1.537h0v.057h0ZM17.8,46.4h.171c.057.057.114.114.057.114h-.114c-.057-.057-.057-.057,0-.114Zm.057.512c.114-.228.114-.342.285-.228h.228c.057.057.057.171,0,.171s0,.171.057.285a.683.683,0,0,1,.057.228c0,.057-.057.171-.057.228s-.285.114-.342.057-.057-.114-.171-.114h-.171a2.129,2.129,0,0,1,.228-.626Zm0,1.082v.057h0l.114-.057Zm-.342.057h0c-.057.171-.057.171-.114.171s-.057-.114,0-.114Zm-.057-.171a.079.079,0,0,1,0-.114c.057-.057,0,.057,0,.057s.114.171.057.114Zm0-.626v.057c0,.057.057.171.057.228a.122.122,0,0,1-.114.114c-.057,0-.114-.057-.057-.114s0-.057,0-.057,0-.114.057-.114Zm-.228-.968h.057c0,.057,0,.114-.057.114s-.057-.057-.057-.114Zm-.171.342.114-.114c.057-.057.057-.114.114.057s0,.228-.057.228-.114.114-.171,0-.057-.171.057-.171Zm-.114.968h.114c.114,0,.171,0,.171.114s-.057.114-.171.114A.122.122,0,0,1,17,47.595Zm.057.8v.057s-.114-.057-.057-.114.057,0,.057.057Zm.057-1.31H17c-.114,0-.171,0-.057-.057s.171,0,.171.057Zm-.228-.626h.057c.057,0,.057,0,0,.057Zm0,.342h.057v-.057Zm-.171.911h.057c.057.057-.057.114-.057.057s0,0,.057,0Zm-.114.569c-.114,0-.114.171,0,.228s.114.114.057.171,0,.171.171.114.228-.114.285,0,.114.114.114-.057,0-.171.057-.171a.171.171,0,0,1,.114.285c-.057.057-.057.057,0,.057h.171l.171-.114c0-.057-.057-.114-.114-.171s-.228-.228-.171-.228l.171.171.228.228c.171.114.228.171.057.342s-.171.114-.228.114-.057.057-.114.057-.171.057-.228-.114A.171.171,0,0,0,17,49.132h-.626c-.114,0-.171.057-.171-.057s.057-.114-.057-.285-.171-.228-.057-.285.114-.114.057-.171a.285.285,0,0,0-.4-.057c-.114.057-.057.171-.057.285s-.057.171-.171.114,0-.342.057-.342h-.114a.512.512,0,0,1-.171-.342h0c.057-.114.285-.171.512-.171s.342.057.285.171.057.285.228.171h.171l.114.114c.114,0,.114,0,0,.057Zm-.114-.456Zm.114-.968h.057c.057.057,0,.114-.057.057s-.057,0,0-.057Zm-.626,0c.114,0,.114-.057.114,0s.228.171.285.114.171.057.228.228.114.171-.057.285h-.4c-.057.057-.114.057-.285,0H15.58c-.114.057-.342,0-.342-.114h-.114c-.057.057-.057.114-.057.057a.209.209,0,0,1,.057-.171c.057-.057.171-.114.171-.171s.057-.114.171-.171.171-.114.285.057.228.171.285.114l-.114-.114a.209.209,0,0,1-.057-.171c0-.057,0,.057.057.057Zm-.512-.683c0-.114,0-.114.057-.114a.228.228,0,0,1,.171.4C15.523,46.57,15.352,46.4,15.409,46.171Zm.228.512c0,.057-.057.057-.057,0s-.057-.057,0-.114.057.057,0,.114Zm.285-1.31a.2.2,0,0,1-.057.114,1.062,1.062,0,0,0-.171.228c-.057.114-.114.171-.285.114s-.228,0-.228-.114H15.3c.057,0,.171-.114.114-.171h-.057l-.114-.114h-.114c-.114,0-.228-.057-.171-.171s.057-.114.114,0,.171.057.342-.057.171-.171.74.057Zm.057-.569c.057.114.057.057,0,.057l-.114.114c-.057.057-.114,0-.171-.057s-.057-.228.057-.228.114.057.114,0,0,0,.057.114Zm-.057-1.879v-.114c.171-.114.228-.057.114.057s-.114.114-.114.057Zm.4.626H16.15q-.171,0,0-.171c.114-.114.228,0,.228.114s0,.057-.057.057Zm0-.4c-.057-.114-.114-.114-.057-.171h.114c.057,0,.057.057.057.114l.114.114c.057.057-.114.057-.228-.057Zm.285-.171h0s.057,0,0,0Zm-.057-.854v.057h0Zm-.114.057c-.057.057-.114,0-.114.057s.057,0,.114-.057h.114c.057.057,0,.057,0,.114s0,.171-.171.171-.228-.114-.228-.285-.057-.057-.114-.057-.057-.171.057-.228a.171.171,0,0,1,.285,0C16.491,42.015,16.491,42.129,16.434,42.186Zm.285-1.31h-.342c-.057,0-.057-.057,0-.114s-.057-.114,0-.228.114-.342.285-.285.228.114.171.171,0,.057,0,.228v.228ZM17,39.908c-.057.114-.114.114-.228-.057s-.114-.228,0-.171l.171.114C17.118,39.794,17.061,39.794,17,39.908Zm.114-1.537A.228.228,0,0,0,17,38.2h0a.74.74,0,0,1,.228.342A.211.211,0,0,1,17.118,38.371Zm.456-.171H17.4a.209.209,0,0,1-.171-.057c-.057-.057,0-.114.057-.171s.228-.057.228,0,0,.114.057.114.171,0,.171.114-.171.228-.228-.057Zm.114-2.448h-.456c-.057.057-.057,0-.057-.228a.228.228,0,0,0-.057-.171v-.114a.2.2,0,0,1,.114-.057c.057,0,.114.114.057-.057s.057-.285.171-.228a.854.854,0,0,1,.114.569.114.114,0,0,0,.171.114c.057,0,.057.057-.114.114Zm.228-.342c-.057-.114-.114-.171-.057-.171s.057.057.057.171Zm.456-1.424c-.171-.057-.228.057-.171.114a.176.176,0,0,1,.057.114l-.114-.114-.228-.114c-.114-.057-.114-.171-.057-.171a.4.4,0,0,1,.4.057c.171.057.171.114.057.057Zm-.228-.683c.057-.057.171.057.114.114s-.114,0-.114-.057Zm.171.228c.057-.057.057-.057.057,0v.114l-.171-.171Zm.171-.854h-.171c0-.057.057-.057.114-.057s0-.057,0-.057Zm0-.8h.057c0-.057-.057-.057-.114-.114Zm.057-.512c-.114.228-.114.285-.342.285s-.285.114-.228.228,0,.057-.057.057h-.171c-.171,0-.285-.114-.228-.456a1.058,1.058,0,0,0,0-.456.342.342,0,0,1,.114-.342c.057-.057.057-.114.171-.114l.171.114c.057.057.114.228.171.228l.171.114.285.114c.057-.057-.057,0-.114.114Zm.171,2.79c-.057,0-.114-.228-.057-.228s.114.057.114.171-.057,0-.114,0Zm0-5.3a.171.171,0,0,1,0-.171c.057-.114.171-.057.228.057s0,.171,0,.171.057.057-.057.057h-.057Zm.285,3.3h0c-.057-.057-.057-.114,0-.114s-.057,0-.057.057Zm0,.911c-.114,0-.171-.057-.057-.114h.114c-.057-.114-.057.057-.171.057Zm.228-1.594c.057,0,.057-.057.114.057s0,.342-.114.285-.228-.4-.114-.342Zm.057-2.391c-.057.057-.057.114-.114,0s0-.114,0-.114.114-.057,0,.057Zm.114-2.847H19.11c-.171.057-.228.057-.228-.285a.512.512,0,0,1,.171-.4c.171-.228.285-.342.4-.342s.114.171,0,.456-.114.342-.057.4,0,.114-.057.114Zm.114,3.075V29.26H19.4Zm.057.342c-.057-.057-.057-.057,0-.114s.114-.057.114,0a.117.117,0,1,1-.228.057Zm.171-2.391c-.057.171-.057.171-.057.057v-.171c0-.057,0-.057,0,.057Zm.057-.854v0Zm.114,1.708c-.057,0-.057-.057,0-.057a.064.064,0,0,1,.114.057Zm.114-5.979c0,.114-.114.171-.114.057v-.114s.114-.114.114,0Zm-.057-.968c0,.114-.057.057-.114-.057l-.171-.171a.141.141,0,0,1,.057-.228.228.228,0,0,1,.285,0c.228.114.228.228.114.342Zm.228,1.31Zm.114,2.221c-.057-.114-.057-.057,0-.114l.114-.114c.057,0,.114.171.114.285s-.171,0-.228-.114Zm.171-6.491c-.114-.057-.114-.114,0-.114s.228,0,.228.114-.057,0-.171-.057Zm.4-1.594c-.114,0-.114-.057,0-.114h.114c.057-.057,0,.057-.057.057Zm.683,5.694c0,.114-.057.114-.057,0s0-.114.057-.114,0,0,0,.057ZM21.5,16.05v.057h0Zm-.228,1.424Zm.057,4.214h0V21.63h0ZM21.5,23c-.057-.114-.114-.171-.057-.171s.228.057.228.171-.114.114-.228-.057Zm.171-4.783a.228.228,0,0,1,0-.285c.114-.057.171,0,.114.114s-.057.171-.114.114Zm2.562,6.548c-.114,0-.171-.114-.057-.171s.114,0,.114.114S24.349,24.762,24.235,24.762Zm3.473-.456h-.057c0-.057,0-.114.057-.114s.057.057.057.114Zm.74.228h-.057c0-.057,0-.114.057-.114a.056.056,0,0,1,.057.057Zm-.968-5.751h0l-.4,1.537c-.114.342.4.456.114.683l-.228.171v-.114H26.74a.109.109,0,0,0,.057.171h.057l-.342.228h-.057a1.765,1.765,0,0,1-1.025.228H25.2c-.285,0-.057-.171.057-.4h0A.569.569,0,0,0,25.317,21h0a30.521,30.521,0,0,0-1.139-3.416h0a.574.574,0,0,0,.057-.171.4.4,0,0,0-.114-.228h-.114l-.74-1.879c-.171-.342-.74-.4-.456-.626a3.441,3.441,0,0,1,2.164-.74c1.139,0-.171.4-.114.8.4,2.107-.057,2.335,1.025,4.214.456.74.342-.8.569-1.594s.569-1.651.8-2.448.114,0,.114-.057H27.31l.228-.911c.114-.342-.342-.569-.057-.74a3.077,3.077,0,0,1,2.107-.74c1.082.114-.171.342-.4.911a37.581,37.581,0,0,0-1.708,5.409Zm5.182-4.9c.057.228.057.342.342.4s.74-.285,1.424-.057l.626.171h.171a.854.854,0,0,1,.228.456,2.552,2.552,0,0,1-.228,2.221c-.4,1.025-.342,1.253-1.31,1.879s-1.651,1.537-3.416,1.139-.74-1.025-.342-1.993.569.228,1.139.171a2.676,2.676,0,0,0,1.424-.456,1.31,1.31,0,0,0,.626-.74.968.968,0,0,0,.171-.911c-.057-.228-.114-.342-.342-.4s-.74.285-1.424.057-.854-.114-1.025-.74a2.391,2.391,0,0,1-.114-.626h0a2.961,2.961,0,0,1,.4-1.139v-.171h.057a.057.057,0,0,0,0-.114,2.335,2.335,0,0,1,1.2-1.537c1.367-.911,1.48-1.424,3.018-1.082s.569.911.285,1.822-.342-.057-.854-.057a1.879,1.879,0,0,0-1.367.4c-.4.228-.342.285-.569.683A.569.569,0,0,0,32.662,13.886ZM41.83,10.47c-.171.456-.4-.114-.911-.171s-.74.171-1.367.512-.4.228-.626.626-.171.285-.114.626.057.342.342.4.74-.228,1.367-.057.8.114.968.683a2.971,2.971,0,0,1-.171,2.164c-.4,1.025-.4,1.253-1.253,1.822h-.057l-.569.4h0c-.968.74-1.31,1.139-2.79.8s-.8-1.082-.4-2.05.626.285,1.2.228a2.733,2.733,0,0,0,1.424-.569,1.31,1.31,0,0,0,.74-.74h0l.114.114v-.228a1.05,1.05,0,0,0,.057-.74c-.057-.4-.057-.342-.342-.4s-.74.285-1.424.114-.8-.171-.968-.74a2.169,2.169,0,0,1,.114-1.765,2.962,2.962,0,0,1,1.367-1.822c.968-.626,1.48-1.48,3.075-1.139s.512,1.025.228,1.879ZM47.638,14.4h-.057c-2.164,1.082-2.221,1.367-4.669,1.651-.626.057.285-.569.4-1.2a58.423,58.423,0,0,0,.626-6.15c.057-.512-.569-.683-.228-.968a2.59,2.59,0,0,1,2.278-.8c1.2.228-.228.626-.285,1.2-.4,2.733-.456,2.733-.683,5.409a.114.114,0,0,0,.171.114,5.523,5.523,0,0,0,1.765-.569c.683-.342.8-1.651,1.139-.968S48.719,13.829,47.638,14.4Zm6.434-4.214c-.057.114-.114.114-.171.057a.171.171,0,0,1,.057-.228h.171C54.186,10.071,54.072,10.128,54.072,10.185Zm.4,1.082Zm1.879.228h0v0Zm.854-.114h-.171l.342-.171c.171,0,0,.171-.171.171Zm1.424.456h0c-.057.114-.057.057-.057,0Zm.057.8Zm.854-1.651h-.057c0-.057,0-.114.057-.057s0,0-.057.057Zm.114-3.872a.056.056,0,0,1-.057-.057h.057Zm.171-.4c0-.057,0-.057.057-.057a.122.122,0,0,1,.114.114Zm.512-.342h-.057V6.313a.056.056,0,0,1,.057.057Zm.114-.683h-.285c-.057-.057-.171-.114-.171-.171h.171c.228-.057.512,0,.512.171s-.114,0-.228,0Zm1.31,2.676h-.114a.114.114,0,0,1,.114-.114c.114,0,.057.057,0,.114Zm.114-.968c0-.057,0-.114.057-.114h.114c0,.057,0,.057-.057.114s-.114.057-.114,0Zm.171,1.082H61.93a.114.114,0,0,1,.057-.171c.057,0,.114.057.171.114s0,.057-.057.057ZM62.214,7.4Zm.228-1.537c-.057.057-.057.114-.057,0s0-.114.114-.114,0,0,0,.057ZM62.9,8.42h-.057V8.363H62.9Zm.171,0Zm.8-1.2h-.171V7.11h.171c.057.057,0,.057,0,.057Zm.569,1.708Zm1.025.4Zm0-.512h.057c.057-.114,0-.057,0-.057ZM65.8,9.1h-.057c0-.057.057-.114.057-.057s.057,0,0,0Zm.228.114Zm.285-2.676Zm1.31-1.651H67.51c0-.057.171-.057.171.057s0-.057-.057-.057Zm-1.082.171Zm.057,2.9h-.114c-.057-.057-.057-.057,0-.057H66.6s0,0,0,.057Zm.171-2.505h.114c.114,0,.171.057.114.114s-.114.114-.171.057.057-.114.057-.171ZM67,7.338Zm0-.228h-.171c0-.057.114-.171.171-.114s.057.057,0,.057Zm.057-1.936H66.77c0-.057.114-.114.171-.114h.171c0-.114-.057,0-.057.057Zm.171-.683h.285c.114.057.114.114.114.171s.057.114,0,.114-.228.057-.342-.057l-.114-.171c-.114-.114-.114-.114.057-.171Zm.512,1.2a.171.171,0,0,1-.057.171H67.4l-.114-.114-.114-.114h.057c-.057,0,0-.057,0-.114V5.345a.171.171,0,0,1,.057-.228A.064.064,0,0,1,67.339,5h.171c.057.057,0,.171.114.228s.171,0,.171.114h0a.171.171,0,0,0-.057.285Zm.114.342h0s-.057-.114-.057-.057Zm.057-.4h0V5.573h-.057Zm.342.456Zm.569,1.765Zm0-1.31h0V6.484l-.057-.057Zm.285.968c-.057.057-.114.057-.114,0a.2.2,0,0,1,.057-.114H69.1s0,0,0,.057Zm1.537.512h-.057c0-.057,0-.114.057-.057s0-.057,0,0Zm.171.057c-.114-.114-.114-.228.057-.285a.619.619,0,0,1,.285-.057c.114,0,.057.114.057.171s-.228.285-.4.114Zm.74-1.2h0V6.826Zm.171.285h0s0,0,0-.057Zm2.164-.456h-.171c-.057-.057-.114-.114-.057-.171s.342,0,.342.114-.057,0-.114,0Z" transform="translate(-4.295 0.017)" fill="#9b794e"/>
      <path id="Path_2156" data-name="Path 2156" d="M125.171,11.1h0a.228.228,0,0,1-.171.114h.171Z" transform="translate(-53.813 -4.77)" fill="#9b794e"/>
      <path id="Path_2157" data-name="Path 2157" d="M3.928,92.035H3.814c-.057-.114-.114-.114-.114,0l.114.114c.171.114.171.114.171,0Z" transform="translate(-1.582 -39.584)" fill="#9b794e"/>
      <path id="Path_2158" data-name="Path 2158" d="M5.064,90.183c-.057-.114,0-.228.114-.228a.4.4,0,0,0,.285-.228h.057c.057,0,.114-.057.057-.114H4.665v.342a.2.2,0,0,0,.114.171c.114.057.342.285.114.456s-.456,0-.4-.171a.342.342,0,0,0-.114-.4H4.21c-.114.114-.171.057-.057-.057s0-.171-.057-.171H4.039c0-.057,0-.057-.171-.057s-.171,0-.114-.057a.107.107,0,0,0,0-.171l-.228.171a.228.228,0,0,1,0,.114H3.242l-.342.342h.285c.114,0,.057.057,0,.171a.254.254,0,0,0,0,.285h.057a.109.109,0,0,0,.171.057.911.911,0,0,0,.057-.512.171.171,0,0,1,0-.171c0-.057.057-.114.171-.114h.285c.057,0,.057.057.057.171a.342.342,0,0,0,.114.342c.057.057.114.057.114.114s-.057.057-.114.057a.228.228,0,0,0-.114.228c0,.171,0,.171.228.114h.512l.171-.114H4.95l.569-.4H5.235a.228.228,0,0,1-.171-.171Zm-.228-.342Zm-.456.626c-.057.114-.114.114-.114-.057s.057-.114.114-.114,0,.057-.057.171Z" transform="translate(-1.237 -38.529)" fill="#9b794e"/>
      <path id="Path_2159" data-name="Path 2159" d="M100.2,17.5Z" transform="translate(-43.134 -7.526)" fill="#9b794e"/>
      <path id="Path_2160" data-name="Path 2160" d="M124.9,11.3Z" transform="translate(-53.77 -4.856)" fill="#9b794e"/>
      <path id="Path_2161" data-name="Path 2161" d="M7.956,89.224a.171.171,0,0,1-.114-.171.228.228,0,0,0-.057-.171c-.057-.057-.114,0-.171.057s-.171.228-.057.285.057.057.057.171v.342a.335.335,0,0,1-.114.285l.228-.171H7.614l.114-.228q.085-.171.171-.171a.114.114,0,0,0,.171-.114Z" transform="translate(-3.218 -38.253)" fill="#9b794e"/>
      <path id="Path_2162" data-name="Path 2162" d="M2.528,90.8l-.228.228h.171c.114.057.171-.057.057-.171Z" transform="translate(-0.979 -39.089)" fill="#9b794e"/>
      <path id="Path_2163" data-name="Path 2163" d="M7.5,87.2Z" transform="translate(-3.218 -37.539)" fill="#9b794e"/>
      <path id="Path_2164" data-name="Path 2164" d="M8.965,87.586h-.4l.114-.171a.359.359,0,0,0,0-.512q-.171-.256-.342,0a.171.171,0,0,0,0,.171c.057.114-.057.171-.228.057H7.94c-.114.057-.114.114.057.228l.114.114a.4.4,0,0,0,0,.171c0,.114.057.171.114.171a.171.171,0,0,1,.114.171c0,.114.057.114.114,0s.114-.114.342-.114h.285c.114,0,.171-.057.114-.171ZM8.4,87.359h.114c-.057.114-.114.114-.114,0Z" transform="translate(-3.373 -37.355)" fill="#9b794e"/>
      <path id="Path_2165" data-name="Path 2165" d="M100.2,17.4Z" transform="translate(-43.134 -7.483)" fill="#9b794e"/>
      <path id="Path_2166" data-name="Path 2166" d="M100.2,17.4Z" transform="translate(-43.134 -7.483)" fill="#9b794e"/>
      <path id="Path_2167" data-name="Path 2167" d="M15.528,87.574l-.228.114h.228c.057-.057.114-.057.057,0h.342C15.869,87.517,15.812,87.517,15.528,87.574Z" transform="translate(-6.577 -37.685)" fill="#9b794e"/>
      <path id="Path_2168" data-name="Path 2168" d="M10.572,88.757h.114c.057-.057.057-.057-.057-.057S10.515,88.7,10.572,88.757Z" transform="translate(-4.525 -38.184)" fill="#9b794e"/>
      <path id="Path_2169" data-name="Path 2169" d="M115.5,16.3Z" transform="translate(-49.723 -7.009)" fill="#9b794e"/>
      <path id="Path_2170" data-name="Path 2170" d="M32.9,26.1Z" transform="translate(-14.155 -11.229)" fill="#9b794e"/>
      <path id="Path_2171" data-name="Path 2171" d="M37.028,37.8h-.114l-.114.171c0,.057,0,.057.057.114h.171c.057,0,.057,0,0-.057Z" transform="translate(-15.835 -16.267)" fill="#9b794e"/>
      <path id="Path_2172" data-name="Path 2172" d="M36.9,36.2Z" transform="translate(-15.878 -15.578)" fill="#9b794e"/>
      <path id="Path_2173" data-name="Path 2173" d="M37.188,36.97H37.3c.057-.057.057-.171,0-.171a.114.114,0,0,0-.114.171Z" transform="translate(-15.995 -15.836)" fill="#9b794e"/>
      <path id="Path_2174" data-name="Path 2174" d="M37.4,36.2Z" transform="translate(-16.093 -15.578)" fill="#9b794e"/>
      <path id="Path_2175" data-name="Path 2175" d="M36.9,36.357h0V36.3Z" transform="translate(-15.878 -15.621)" fill="#9b794e"/>
      <path id="Path_2176" data-name="Path 2176" d="M37.3,32.657h.057c.057,0,.057-.057,0-.057Z" transform="translate(-16.05 -14.028)" fill="#9b794e"/>
      <path id="Path_2177" data-name="Path 2177" d="M36.814,34.2c-.057,0-.114.114-.114.171h.114A.107.107,0,0,0,36.814,34.2Z" transform="translate(-15.792 -14.717)" fill="#9b794e"/>
      <path id="Path_2178" data-name="Path 2178" d="M36.3,31.2Z" transform="translate(-15.619 -13.425)" fill="#9b794e"/>
      <path id="Path_2179" data-name="Path 2179" d="M37.5,33.4Z" transform="translate(-16.136 -14.372)" fill="#9b794e"/>
      <path id="Path_2180" data-name="Path 2180" d="M36.3,33.5Z" transform="translate(-15.619 -14.416)" fill="#9b794e"/>
      <path id="Path_2181" data-name="Path 2181" d="M36.4,33.657h.057c.057,0,.057-.057,0-.057Z" transform="translate(-15.662 -14.459)" fill="#9b794e"/>
      <path id="Path_2182" data-name="Path 2182" d="M36.751,31.2h-.057a.057.057,0,0,0,0,.057Z" transform="translate(-15.786 -13.425)" fill="#9b794e"/>
      <path id="Path_2183" data-name="Path 2183" d="M38.7,37.9Z" transform="translate(-16.653 -16.31)" fill="#9b794e"/>
      <path id="Path_2184" data-name="Path 2184" d="M37.8,37.1Z" transform="translate(-16.265 -15.966)" fill="#9b794e"/>
      <path id="Path_2185" data-name="Path 2185" d="M38.671,36.6h-.057c-.057,0-.114,0-.114.057v.171h.057A.432.432,0,0,0,38.671,36.6Z" transform="translate(-16.567 -15.75)" fill="#9b794e"/>
      <path id="Path_2186" data-name="Path 2186" d="M51.5,29.3Z" transform="translate(-22.164 -12.607)" fill="#9b794e"/>
      <path id="Path_2187" data-name="Path 2187" d="M38.6,37.2Z" transform="translate(-16.61 -16.009)" fill="#9b794e"/>
      <path id="Path_2188" data-name="Path 2188" d="M39.394,35.2a.057.057,0,0,0,0,.057h0Z" transform="translate(-16.948 -15.148)" fill="#9b794e"/>
      <path id="Path_2189" data-name="Path 2189" d="M39.716,30.239c0-.057,0-.114-.114-.057a.114.114,0,0,0-.114.171v.114C39.659,30.41,39.716,30.3,39.716,30.239Z" transform="translate(-16.985 -12.977)" fill="#9b794e"/>
      <path id="Path_2190" data-name="Path 2190" d="M36.1,26.4Z" transform="translate(-15.533 -11.358)" fill="#9b794e"/>
      <path id="Path_2191" data-name="Path 2191" d="M37.668,34c-.057.057-.057.057,0,.114s.114-.057.057-.114Z" transform="translate(-16.19 -14.631)" fill="#9b794e"/>
      <path id="Path_2192" data-name="Path 2192" d="M38.014,33.8h-.057l-.057.114S38.071,33.857,38.014,33.8Z" transform="translate(-16.308 -14.545)" fill="#9b794e"/>
      <path id="Path_2193" data-name="Path 2193" d="M38,37.957h.114c.057,0,.057-.057,0-.057Z" transform="translate(-16.351 -16.31)" fill="#9b794e"/>
      <path id="Path_2194" data-name="Path 2194" d="M38.5,35.1Z" transform="translate(-16.567 -15.104)" fill="#9b794e"/>
      <path id="Path_2195" data-name="Path 2195" d="M38.1,34.968h.057C38.1,34.911,38.1,34.911,38.1,34.968Z" transform="translate(-16.394 -15.029)" fill="#9b794e"/>
      <path id="Path_2196" data-name="Path 2196" d="M38.757,34.6a.057.057,0,1,0,0,.114.064.064,0,1,0,.114-.057Z" transform="translate(-16.653 -14.889)" fill="#9b794e"/>
      <path id="Path_2197" data-name="Path 2197" d="M34.694,24.5a.057.057,0,0,0,0,.057h0Z" transform="translate(-14.925 -10.54)" fill="#9b794e"/>
      <path id="Path_2198" data-name="Path 2198" d="M36,29.639h.057c.057-.057,0-.114,0-.057A.056.056,0,0,1,36,29.639Z" transform="translate(-15.49 -12.718)" fill="#9b794e"/>
      <path id="Path_2199" data-name="Path 2199" d="M34.2,28.357h.057c.057,0,0-.057,0-.057Z" transform="translate(-14.715 -12.176)" fill="#9b794e"/>
      <path id="Path_2200" data-name="Path 2200" d="M34.6,26Z" transform="translate(-14.887 -11.186)" fill="#9b794e"/>
      <path id="Path_2201" data-name="Path 2201" d="M35.2,29.9Z" transform="translate(-15.146 -12.865)" fill="#9b794e"/>
      <path id="Path_2202" data-name="Path 2202" d="M35.2,26.6Z" transform="translate(-15.146 -11.444)" fill="#9b794e"/>
      <path id="Path_2203" data-name="Path 2203" d="M35,27.2Z" transform="translate(-15.06 -11.703)" fill="#9b794e"/>
      <path id="Path_2204" data-name="Path 2204" d="M19.782,82.9h-.114c-.057.057-.057.057,0,.057h.057C19.782,83.014,19.782,82.9,19.782,82.9Z" transform="translate(-8.439 -35.687)" fill="#9b794e"/>
      <path id="Path_2205" data-name="Path 2205" d="M21.083,85.384c-.057,0,0,.171.114.171h.057C21.254,85.384,21.14,85.327,21.083,85.384Z" transform="translate(-9.057 -36.747)" fill="#9b794e"/>
      <path id="Path_2206" data-name="Path 2206" d="M33.788,26.1a.114.114,0,0,0,0,.114c.057.057.057-.114.057-.114Z" transform="translate(-14.531 -11.229)" fill="#9b794e"/>
      <path id="Path_2207" data-name="Path 2207" d="M34.083,26.5h0a.171.171,0,0,0,0,.171h.057a.114.114,0,0,0,0-.114Z" transform="translate(-14.655 -11.401)" fill="#9b794e"/>
      <path id="Path_2208" data-name="Path 2208" d="M33.6,27.4Z" transform="translate(-14.457 -11.789)" fill="#9b794e"/>
      <path id="Path_2209" data-name="Path 2209" d="M35,26.3Z" transform="translate(-15.06 -11.315)" fill="#9b794e"/>
      <path id="Path_2210" data-name="Path 2210" d="M35.3,31.6v.057c0,.057.057,0,.057-.057Z" transform="translate(-15.189 -13.597)" fill="#9b794e"/>
      <path id="Path_2211" data-name="Path 2211" d="M36.4,28.1Z" transform="translate(-15.662 -12.09)" fill="#9b794e"/>
      <path id="Path_2212" data-name="Path 2212" d="M35.8,28.5Z" transform="translate(-15.404 -12.263)" fill="#9b794e"/>
      <path id="Path_2213" data-name="Path 2213" d="M37.1,35.8Z" transform="translate(-15.964 -15.406)" fill="#9b794e"/>
      <path id="Path_2214" data-name="Path 2214" d="M36,33.4Z" transform="translate(-15.49 -14.372)" fill="#9b794e"/>
      <path id="Path_2215" data-name="Path 2215" d="M35.8,32.7Z" transform="translate(-15.404 -14.071)" fill="#9b794e"/>
      <path id="Path_2216" data-name="Path 2216" d="M35.5,29.8Z" transform="translate(-15.275 -12.822)" fill="#9b794e"/>
      <path id="Path_2217" data-name="Path 2217" d="M37.1,37.3Z" transform="translate(-15.964 -16.052)" fill="#9b794e"/>
      <path id="Path_2218" data-name="Path 2218" d="M37.3,35.2Z" transform="translate(-16.05 -15.148)" fill="#9b794e"/>
      <path id="Path_2219" data-name="Path 2219" d="M37.4,36.3Z" transform="translate(-16.093 -15.621)" fill="#9b794e"/>
      <path id="Path_2220" data-name="Path 2220" d="M37.014,34.214h0c0-.057,0-.114-.057-.114a.057.057,0,0,0,0,.114Z" transform="translate(-15.878 -14.674)" fill="#9b794e"/>
      <path id="Path_2221" data-name="Path 2221" d="M39.7,36.3a.281.281,0,0,0,.057.171h.114c.057-.057,0-.114-.057-.114Z" transform="translate(-17.083 -15.621)" fill="#9b794e"/>
      <path id="Path_2222" data-name="Path 2222" d="M49.9,33.1Z" transform="translate(-21.475 -14.243)" fill="#9b794e"/>
      <path id="Path_2223" data-name="Path 2223" d="M48.7,34.8Z" transform="translate(-20.959 -14.975)" fill="#9b794e"/>
      <path id="Path_2224" data-name="Path 2224" d="M49,32.5Z" transform="translate(-21.088 -13.985)" fill="#9b794e"/>
      <path id="Path_2225" data-name="Path 2225" d="M50.6,32.5Z" transform="translate(-21.777 -13.985)" fill="#9b794e"/>
      <path id="Path_2226" data-name="Path 2226" d="M50.6,31Z" transform="translate(-21.777 -13.339)" fill="#9b794e"/>
      <path id="Path_2227" data-name="Path 2227" d="M47,33.557h.057c.057,0,.057-.057,0-.057Z" transform="translate(-20.227 -14.416)" fill="#9b794e"/>
      <path id="Path_2228" data-name="Path 2228" d="M46.4,33.7Z" transform="translate(-19.968 -14.502)" fill="#9b794e"/>
      <path id="Path_2229" data-name="Path 2229" d="M46.7,35.3Z" transform="translate(-20.098 -15.191)" fill="#9b794e"/>
      <path id="Path_2230" data-name="Path 2230" d="M48.2,33.1v.057h0Z" transform="translate(-20.743 -14.243)" fill="#9b794e"/>
      <path id="Path_2231" data-name="Path 2231" d="M46.9,33.909h.114a.064.064,0,1,0-.057-.114C46.9,33.795,46.9,33.852,46.9,33.909Z" transform="translate(-20.184 -14.54)" fill="#9b794e"/>
      <path id="Path_2232" data-name="Path 2232" d="M39.9,27.9Z" transform="translate(-17.169 -12.004)" fill="#9b794e"/>
      <path id="Path_2233" data-name="Path 2233" d="M53.4,28.457c.057,0,0-.057-.057-.057s-.114,0-.057.057Z" transform="translate(-22.922 -12.219)" fill="#9b794e"/>
      <path id="Path_2234" data-name="Path 2234" d="M51.8,32.3c.057.057.114.057.114,0a.228.228,0,0,0,0-.171c-.057-.114-.114-.114-.114-.057Z" transform="translate(-22.294 -13.784)" fill="#9b794e"/>
      <path id="Path_2235" data-name="Path 2235" d="M51.1,30.3h0a.114.114,0,0,0,.057.114h.114C51.213,30.414,51.156,30.3,51.1,30.3Z" transform="translate(-21.991 -13.038)" fill="#9b794e"/>
      <path id="Path_2236" data-name="Path 2236" d="M52,29.7Z" transform="translate(-22.38 -12.779)" fill="#9b794e"/>
      <path id="Path_2237" data-name="Path 2237" d="M51.8,28.657V28.6h0Z" transform="translate(-22.294 -12.306)" fill="#9b794e"/>
      <path id="Path_2238" data-name="Path 2238" d="M51.6,33.4Z" transform="translate(-22.207 -14.372)" fill="#9b794e"/>
      <path id="Path_2239" data-name="Path 2239" d="M52.7,31.057V31h0Z" transform="translate(-22.681 -13.339)" fill="#9b794e"/>
      <path id="Path_2240" data-name="Path 2240" d="M54,25.957c.057,0,.057-.057,0-.057h0Z" transform="translate(-23.241 -11.143)" fill="#9b794e"/>
      <path id="Path_2241" data-name="Path 2241" d="M54.157,25.8c.057,0,.057-.114,0-.114s-.057-.057-.057.057S54.1,25.8,54.157,25.8Z" transform="translate(-23.284 -11.046)" fill="#9b794e"/>
      <path id="Path_2242" data-name="Path 2242" d="M45.5,32.557h.057V32.5Z" transform="translate(-19.581 -13.985)" fill="#9b794e"/>
      <path id="Path_2243" data-name="Path 2243" d="M53.928,27.314c.057-.057.057-.057,0-.114h-.171c-.057,0-.057,0-.057.057v.114Z" transform="translate(-23.112 -11.703)" fill="#9b794e"/>
      <path id="Path_2244" data-name="Path 2244" d="M53.614,29.7h-.057a.056.056,0,0,0-.057.057Z" transform="translate(-23.026 -12.779)" fill="#9b794e"/>
      <path id="Path_2245" data-name="Path 2245" d="M50.8,32.5Z" transform="translate(-21.863 -13.985)" fill="#9b794e"/>
      <path id="Path_2246" data-name="Path 2246" d="M50.282,21.757V21.7h-.114c-.057,0-.057.057,0,.114Z" transform="translate(-21.572 -9.334)" fill="#9b794e"/>
      <path id="Path_2247" data-name="Path 2247" d="M46.494,26.6a.057.057,0,0,0,0,.057h.057V26.6Z" transform="translate(-20.006 -11.444)" fill="#9b794e"/>
      <path id="Path_2248" data-name="Path 2248" d="M46.9,27.1v.057h0Z" transform="translate(-20.184 -11.66)" fill="#9b794e"/>
      <path id="Path_2249" data-name="Path 2249" d="M47.8,21.7Z" transform="translate(-20.571 -9.334)" fill="#9b794e"/>
      <path id="Path_2250" data-name="Path 2250" d="M42.3,24.3Z" transform="translate(-18.203 -10.454)" fill="#9b794e"/>
      <path id="Path_2251" data-name="Path 2251" d="M47.9,22.857V22.8h0Z" transform="translate(-20.614 -9.808)" fill="#9b794e"/>
      <path id="Path_2252" data-name="Path 2252" d="M42.4,25.782v.057h.114C42.514,25.782,42.4,25.725,42.4,25.782Z" transform="translate(-18.246 -11.082)" fill="#9b794e"/>
      <path id="Path_2253" data-name="Path 2253" d="M41.5,29.2Z" transform="translate(-17.858 -12.564)" fill="#9b794e"/>
      <path id="Path_2254" data-name="Path 2254" d="M40.4,32.7Z" transform="translate(-17.385 -14.071)" fill="#9b794e"/>
      <path id="Path_2255" data-name="Path 2255" d="M40.4,29.8Z" transform="translate(-17.385 -12.822)" fill="#9b794e"/>
      <path id="Path_2256" data-name="Path 2256" d="M40.9,26.557h.057c.057,0,.057-.057,0-.057Z" transform="translate(-17.6 -11.401)" fill="#9b794e"/>
      <path id="Path_2257" data-name="Path 2257" d="M40.6,27.3Z" transform="translate(-17.471 -11.746)" fill="#9b794e"/>
      <path id="Path_2258" data-name="Path 2258" d="M47,26.4Z" transform="translate(-20.227 -11.358)" fill="#9b794e"/>
      <path id="Path_2259" data-name="Path 2259" d="M48.1,25.8Z" transform="translate(-20.7 -11.1)" fill="#9b794e"/>
      <path id="Path_2260" data-name="Path 2260" d="M48.8,23.2Z" transform="translate(-21.002 -9.98)" fill="#9b794e"/>
      <path id="Path_2261" data-name="Path 2261" d="M48.3,22.3Z" transform="translate(-20.786 -9.593)" fill="#9b794e"/>
      <path id="Path_2262" data-name="Path 2262" d="M48.6,21.057h.057V21Z" transform="translate(-20.916 -9.033)" fill="#9b794e"/>
      <path id="Path_2263" data-name="Path 2263" d="M48.3,27.5Z" transform="translate(-20.786 -11.832)" fill="#9b794e"/>
      <path id="Path_2264" data-name="Path 2264" d="M47.3,25.757h.057c.057,0,.057,0,0-.057Z" transform="translate(-20.356 -11.057)" fill="#9b794e"/>
      <path id="Path_2265" data-name="Path 2265" d="M47.2,26.4Z" transform="translate(-20.313 -11.358)" fill="#9b794e"/>
      <path id="Path_2266" data-name="Path 2266" d="M45.094,32.7a.057.057,0,0,0,0,.057h0Z" transform="translate(-19.403 -14.071)" fill="#9b794e"/>
      <path id="Path_2267" data-name="Path 2267" d="M47.768,24.8c-.057.057-.057.114,0,.228s.057.114.114,0V24.8Z" transform="translate(-20.539 -10.669)" fill="#9b794e"/>
    </g>
  </g>
</svg>
